<?xml version="1.0" standalone="no"?>
<!DOCTYPE svg PUBLIC "-//W3C//DTD SVG 20010904//EN"
 "http://www.w3.org/TR/2001/REC-SVG-20010904/DTD/svg10.dtd">
<svg version="1.0" xmlns="http://www.w3.org/2000/svg"
 width="660.000000pt" height="660.000000pt" viewBox="0 0 660.000000 660.000000"
 preserveAspectRatio="xMidYMid meet">
<metadata>
Created by potrace 1.11, written by Peter Selinger 2001-2013
</metadata>
<g transform="translate(0.000000,660.000000) scale(0.100000,-0.100000)"
fill="#000000" stroke="none">
<path d="M3370 6000 c-521 -30 -1024 -181 -1369 -413 -403 -269 -639 -679
-644 -1117 -2 -143 9 -273 23 -265 4 3 8 -5 8 -18 0 -41 9 -71 70 -244 90
-255 169 -387 337 -562 184 -192 377 -329 795 -568 291 -166 439 -258 546
-340 89 -68 210 -192 225 -229 5 -14 9 -62 9 -108 0 -253 -135 -432 -389 -515
-347 -113 -974 -30 -1545 206 -199 82 -581 284 -775 410 -46 30 -84 53 -86 51
-10 -12 -218 -579 -286 -779 l-83 -246 24 -87 25 -88 75 -35 c311 -145 751
-293 1115 -374 710 -157 1502 -183 2095 -68 672 130 1145 445 1378 914 81 165
120 319 129 511 10 233 -27 382 -154 624 -118 223 -225 364 -418 548 -180 172
-346 293 -681 497 -355 217 -567 372 -662 484 l-54 64 4 96 c3 82 8 106 36
165 41 87 99 156 175 208 286 194 740 218 1337 68 319 -80 599 -189 891 -346
107 -57 143 -73 150 -63 4 7 94 227 200 488 l192 476 -33 60 c-74 134 -61 124
-241 192 -374 143 -743 246 -1130 317 -415 76 -895 108 -1289 86z"/>
</g>
</svg>
